<svg width="32" height="32" viewBox="0 0 24 24" fill="none" xmlns="http://www.w3.org/2000/svg">
<path d="M12 2C11.4477 2 11 2.44772 11 3V6C11 6.55228 11.4477 7 12 7C12.5523 7 13 6.55228 13 6V3C13 2.44772 12.5523 2 12 2Z" fill="#a12c2c"/>
<path d="M12 17C11.4477 17 11 17.4477 11 18V21C11 21.5523 11.4477 22 12 22C12.5523 22 13 21.5523 13 21V18C13 17.4477 12.5523 17 12 17Z" fill="#a12c2c"/>
<path d="M7 6.41421L8.41421 7.82843L6.04289 10.1997C5.46711 10.7755 5.46711 11.7245 6.04289 12.3003L7.82843 14.0858L6.41421 15.5L4.62868 13.7145C3.06653 12.1523 3.06653 9.84772 4.62868 8.28557L6.41421 6.41421L7 6.41421Z" fill="#a12c2c"/>
<path d="M17 6.41421L15.5858 7.82843L17.9571 10.1997C18.5329 10.7755 18.5329 11.7245 17.9571 12.3003L16.1716 14.0858L17.5858 15.5L19.3713 13.7145C20.9335 12.1523 20.9335 9.84772 19.3713 8.28557L17.5858 6.41421L17 6.41421Z" fill="#a12c2c"/>
<path d="M18.4142 15.5L17.8284 14.9142L15.4571 12.5429C14.8813 11.9671 14.8813 11.0181 15.4571 10.4423L17.8284 8.07107L18.4142 7.48528L19.3713 8.28557L20.9335 9.84772C22.4957 11.4099 22.4957 13.7145 20.9335 15.2767L19.3713 16.8389L18.4142 15.5Z" fill="#a12c2c"/>
<path d="M6.04289 10.1997L7.82843 8.41421L8.41421 7.82843L7.45709 6.41421L5.89495 4.85206C4.33279 3.28991 2.02821 3.28991 0.466063 4.85206L-1.09425e-05 6.41421L0.585785 7L2.95711 9.37132C3.53289 9.94711 3.53289 10.8961 2.95711 11.4719L0.585785 13.8432L-1.09425e-05 14.429L0.957095 15.8432L2.51924 17.4054C4.08139 18.9675 6.38597 18.9675 7.94812 17.4054L9.51027 15.8432L8.55315 14.429L6.04289 11.4719L7.82843 9.68628L6.41421 8.28557L4.62868 6.41421L6.04289 10.1997Z" fill="#a12c2c"/>
<path d="M12 11C10.8954 11 10 11.8954 10 13C10 14.1046 10.8954 15 12 15C13.1046 15 14 14.1046 14 13C14 11.8954 13.1046 11 12 11Z" fill="#f1c40f"/>
<path d="M12 7C12.5523 7 13 6.55228 13 6V3C13 2.44772 12.5523 2 12 2C11.4477 2 11 2.44772 11 3V6C11 6.55228 11.4477 7 12 7Z" fill="#f1c40f"/>
<path d="M12 17C12.5523 17 13 17.4477 13 18V21C13 21.5523 12.5523 22 12 22C11.4477 22 11 21.5523 11 21V18C11 17.4477 11.4477 17 12 17Z" fill="#f1c40f"/>
<path d="M17 6.41421C17.5858 7 17.8284 7.58579 17.2426 8.17157L14.8713 10.5429C14.3005 11.1187 13.3515 11.1187 12.7757 10.5429L10.4044 8.17157C9.81862 7.58579 10.0612 7 10.647 6.41421C11.2328 5.82843 12.1818 5.82843 12.7576 6.41421L15.1289 8.78557L16.4853 7.42921C17.0711 6.84343 18.0201 6.84343 18.6059 7.42921L20.0191 8.84247C20.6049 9.42825 20.6049 10.3772 20.0191 10.963L18.6059 12.3762C18.0201 12.962 17.0711 12.962 16.4853 12.3762L14.114 10.0049L12.7576 11.3613C12.1718 11.9471 12.1718 12.8961 12.7576 13.4719L15.1289 15.8432C15.7047 16.419 15.9473 17 15.3615 17.5858C14.7757 18.1716 13.8267 18.1716 13.2509 17.5858L10.8796 15.2145L9.52324 16.5708C8.93746 17.1566 8.93746 18.1056 9.52324 18.6914L10.9365 20.1046C11.5223 20.6904 12.4713 20.6904 13.0571 20.1046L14.4704 18.6914L16.8417 16.3201L18.255 17.7333C18.8407 18.3191 19.7897 18.3191 20.3755 17.7333L21.7888 16.3201C22.3746 15.7343 22.3746 14.7853 21.7888 14.2C21.203 13.6142 20.254 13.6142 19.6682 14.2L18.255 15.6133L17.5858 14.9142L17 15.5L17.5858 16.0858L16.8417 16.8389L15.8846 17.5858L15.3615 17.0627L14.4704 17.5858L13.0571 18.6914L12.7576 19.0858L11.3444 17.6726L10.8796 17.0627L10.4044 17.5858L9.52324 18.6914L8.56612 17.5858L9.51027 16.0858L10.647 17.2222L12.7757 19.3509L13.3615 19.9367L14.7757 18.5235L15.5226 17.6726L16.2695 18.5235L17.5858 19.8398L18.6059 20.3755L19.3713 20.1046L20.3755 19.3509L21.7888 17.9376L22.3746 17.3519L21.203 15.6133L20.3755 14.8664L19.3713 14.2L18.6059 13.6142L17.2426 12.2509L16.4853 11.4941L15.1289 10.1308L14.4704 9.47222L13.3615 8.3633L12.7757 7.77752L11.3444 6.34621L10.647 5.64821L9.52324 7.06148L8.56612 7.77752L7.82843 8.28557L7.06305 8.86135L6.04289 9.68628L5.3449 10.1308L4.62868 10.8685L3.53289 11.4719L2.95711 12.0477L2.51924 12.7854L0.957095 14.2L0.466063 14.7171L0.585785 15.5L2.01904 16.9333L2.51924 17.4054Z" fill="#f1c40f"/>
</svg>