<svg width="415" height="52" viewBox="0 0 415 52" fill="none" xmlns="http://www.w3.org/2000/svg">
<path d="M1.00006 12.4846C162.287 25.3001 252.714 31.1195 414 12.4846" stroke="#404040" stroke-width="2" stroke-linecap="round"/>
<circle cx="49.6807" cy="29.7465" r="13.4341" transform="rotate(4.29445 49.6807 29.7465)" fill="url(#paint0_radial_2_5934)"/>
<path d="M58.2643 28.9529C57.9334 33.3588 50.9962 38.9367 49.0019 38.7869C47.0075 38.6372 40.9811 32.0858 41.312 27.6799C41.6428 23.2741 45.9813 20.008 50.3872 20.3389C54.7931 20.6697 58.5951 24.547 58.2643 28.9529Z" fill="#E55656"/>
<path d="M45.5764 17.631C45.6787 16.2699 45.9949 15.9978 47.3561 16.1L54.0173 16.6002C55.3785 16.7024 55.6506 17.0187 55.5484 18.3799L55.4226 20.0551C55.3203 21.4163 55.0041 21.6884 53.6429 21.5862L46.9817 21.086C45.6205 20.9838 45.3484 20.6675 45.4506 19.3063L45.5764 17.631Z" fill="#404040"/>
<circle cx="103.223" cy="33.4949" r="13.4341" transform="rotate(3.6201 103.223 33.4949)" fill="url(#paint1_radial_2_5934)"/>
<path d="M111.797 32.6004C111.518 37.0098 104.647 42.669 102.651 42.5427C100.655 42.4164 94.5515 35.9364 94.8305 31.527C95.1095 27.1175 99.4092 23.8007 103.819 24.0796C108.228 24.3586 112.076 28.1909 111.797 32.6004Z" fill="#5AE556"/>
<path d="M98.9764 21.4286C99.0626 20.0663 99.3756 19.7905 100.738 19.8767L107.405 20.2985C108.767 20.3847 109.043 20.6977 108.956 22.06L108.85 23.7366C108.764 25.0989 108.451 25.3747 107.089 25.2885L100.422 24.8667C99.0599 24.7806 98.7841 24.4675 98.8703 23.1052L98.9764 21.4286Z" fill="#404040"/>
<circle cx="153.562" cy="36.2081" r="13.4341" transform="rotate(2.43419 153.562 36.2081)" fill="url(#paint2_radial_2_5934)"/>
<path d="M162.115 35.1363C161.927 39.5506 155.175 45.3508 153.176 45.2659C151.178 45.1809 144.942 38.8286 145.13 34.4143C145.318 30 149.548 26.5949 153.962 26.7826C158.376 26.9702 162.302 30.7221 162.115 35.1363Z" fill="#E55656"/>
<path d="M149.066 24.2323C149.124 22.8685 149.431 22.5863 150.795 22.6443L157.469 22.928C158.833 22.986 159.115 23.2933 159.057 24.657L158.986 26.3355C158.928 27.6993 158.62 27.9815 157.257 27.9235L150.583 27.6398C149.219 27.5818 148.937 27.2746 148.995 25.9108L149.066 24.2323Z" fill="#404040"/>
<circle cx="207.293" cy="37.7113" r="13.4341" transform="rotate(0.662294 207.293 37.7113)" fill="url(#paint3_radial_2_5934)"/>
<path d="M215.809 36.3756C215.758 40.7935 209.188 46.7997 207.188 46.7766C205.188 46.7535 198.759 40.597 198.81 36.1791C198.861 31.7611 202.984 28.2268 207.402 28.2778C211.82 28.3289 215.86 31.9576 215.809 36.3756Z" fill="#5AE556"/>
<path d="M202.429 25.8802C202.445 24.5153 202.743 24.2237 204.108 24.2395L210.788 24.3167C212.153 24.3325 212.444 24.6309 212.429 25.9958L212.409 27.6757C212.393 29.0406 212.095 29.3322 210.73 29.3164L204.051 29.2392C202.686 29.2234 202.394 28.925 202.41 27.5601L202.429 25.8802Z" fill="#404040"/>
<circle cx="259.239" cy="37.3932" r="13.4341" transform="rotate(-1.3979 259.239 37.3932)" fill="url(#paint4_radial_2_5934)"/>
<path d="M267.702 35.7522C267.809 40.1691 261.46 46.4076 259.46 46.4564C257.461 46.5052 250.814 40.5838 250.707 36.1669C250.599 31.7499 254.592 28.0697 259.009 27.9619C263.426 27.8541 267.594 31.3352 267.702 35.7522Z" fill="#E55656"/>
<path d="M253.953 25.7446C253.92 24.38 254.208 24.0779 255.572 24.0446L262.25 23.8816C263.615 23.8483 263.917 24.136 263.95 25.5006L263.991 27.1801C264.025 28.5447 263.737 28.8468 262.372 28.8801L255.694 29.0431C254.33 29.0764 254.028 28.7887 253.994 27.4241L253.953 25.7446Z" fill="#404040"/>
<circle cx="311.589" cy="35.1722" r="13.4341" transform="rotate(-3.4409 311.589 35.1722)" fill="url(#paint5_radial_2_5934)"/>
<path d="M319.987 33.2305C320.252 37.6409 314.129 44.1017 312.133 44.2218C310.136 44.3418 303.283 38.6612 303.018 34.2509C302.753 29.8405 306.612 26.0203 311.022 25.7551C315.433 25.4899 319.722 28.8202 319.987 33.2305Z" fill="#5AE556"/>
<path d="M305.891 23.7194C305.809 22.3569 306.086 22.0447 307.448 21.9628L314.116 21.5619C315.479 21.4799 315.791 21.7567 315.873 23.1192L315.974 24.7962C316.056 26.1588 315.779 26.4709 314.416 26.5529L307.748 26.9538C306.386 27.0357 306.074 26.7589 305.992 25.3964L305.891 23.7194Z" fill="#404040"/>
<circle cx="363.307" cy="31.2462" r="13.4341" transform="rotate(-5.19381 363.307 31.2462)" fill="url(#paint6_radial_2_5934)"/>
<path d="M371.642 29.0486C372.042 33.4487 366.119 40.0939 364.127 40.2749C362.136 40.456 355.112 34.9876 354.712 30.5875C354.312 26.1874 358.053 22.2508 362.453 21.8509C366.853 21.4509 371.242 24.6484 371.642 29.0486Z" fill="#E55656"/>
<path d="M357.261 19.9731C357.138 18.6137 357.405 18.2932 358.764 18.1697L365.417 17.565C366.776 17.4414 367.097 17.7085 367.22 19.0679L367.372 20.741C367.496 22.1004 367.229 22.4209 365.87 22.5444L359.217 23.1491C357.858 23.2727 357.537 23.0056 357.414 21.6462L357.261 19.9731Z" fill="#404040"/>
<circle cx="25.7812" cy="14.4383" r="13.4341" transform="rotate(4.46114 25.7812 14.4383)" fill="url(#paint7_radial_2_5934)"/>
<path d="M17.5969 11.9511C17.1292 11.3397 17.4987 10.4513 18.2621 10.3519L23.4147 9.68125C24.1781 9.58189 24.7628 10.3462 24.4671 11.0569L24.1669 11.7787L22.7718 15.1328L22.4716 15.8546C22.176 16.5654 21.2218 16.6896 20.754 16.0782L17.5969 11.9511Z" fill="#E1B23A"/>
<path d="M25.5938 5.87384C26.0307 5.24007 26.9899 5.31698 27.3203 6.01227L29.5504 10.7055C29.8808 11.4008 29.3346 12.193 28.5672 12.1315L27.788 12.069L24.1669 11.7787L23.3877 11.7162C22.6204 11.6547 22.2074 10.7856 22.6443 10.1518L25.5938 5.87384Z" fill="#E1B23A"/>
<path d="M33.8448 11.6013C34.5826 11.8211 34.8058 12.757 34.2466 13.2861L30.4722 16.8574C29.9131 17.3864 28.9908 17.1118 28.8122 16.363L28.6309 15.6026L27.788 12.069L27.6066 11.3086C27.428 10.5599 28.127 9.89851 28.8648 10.1182L33.8448 11.6013Z" fill="#E1B23A"/>
<path d="M30.9473 21.2184C30.9663 21.988 30.1451 22.4895 29.4692 22.1212L24.9064 19.6351C24.2304 19.2668 24.2066 18.3049 24.8636 17.9036L25.5307 17.4961L28.6309 15.6026L29.298 15.1952C29.9549 14.7939 30.7999 15.2543 30.8189 16.0239L30.9473 21.2184Z" fill="#E1B23A"/>
<path d="M20.9056 21.4346C20.1795 21.6905 19.4488 21.0645 19.5902 20.3078L20.5446 15.2C20.686 14.4433 21.5935 14.1235 22.1781 14.6243L22.7718 15.1328L25.5307 17.4961L26.1244 18.0047C26.709 18.5055 26.5322 19.4514 25.8062 19.7073L20.9056 21.4346Z" fill="#E1B23A"/>
<path d="M24.1669 11.7787L22.7718 15.1328L25.5307 17.4961L28.6309 15.6026L27.788 12.069L24.1669 11.7787Z" fill="#E1B23A"/>
<circle cx="75.4243" cy="18.1601" r="13.4341" transform="rotate(4.03891 75.4243 18.1601)" fill="url(#paint8_radial_2_5934)"/>
<path d="M67.2219 15.7333C66.7496 15.1254 67.1126 14.2342 67.8752 14.1292L73.0228 13.4206C73.7855 13.3156 74.3757 14.0756 74.0853 14.7885L73.7905 15.5125L72.4201 18.8768L72.1252 19.6008C71.8348 20.3137 70.8816 20.4449 70.4093 19.837L67.2219 15.7333Z" fill="#E1B23A"/>
<path d="M75.1737 9.59726C75.606 8.96029 76.5657 9.03013 76.9012 9.72297L79.1659 14.3997C79.5014 15.0925 78.961 15.8887 78.1932 15.8329L77.4136 15.7761L73.7905 15.5125L73.0108 15.4557C72.243 15.3999 71.8237 14.5338 72.2559 13.8968L75.1737 9.59726Z" fill="#E1B23A"/>
<path d="M83.4667 15.2638C84.2061 15.4781 84.4363 16.4124 83.881 16.9456L80.133 20.5445C79.5778 21.0777 78.6535 20.8099 78.4694 20.0624L78.2825 19.3034L77.4136 15.7761L77.2266 15.0171C77.0425 14.2696 77.7366 13.6032 78.476 13.8174L83.4667 15.2638Z" fill="#E1B23A"/>
<path d="M80.6402 24.902C80.6649 25.6714 79.8474 26.179 79.1688 25.8157L74.5878 23.3633C73.9091 22.9999 73.8782 22.0382 74.5322 21.6321L75.1963 21.2197L78.2825 19.3034L78.9466 18.891C79.6005 18.4849 80.4489 18.9391 80.4736 19.7085L80.6402 24.902Z" fill="#E1B23A"/>
<path d="M70.6003 25.1921C69.8762 25.4534 69.1409 24.8328 69.2767 24.0751L70.1934 18.9604C70.3293 18.2027 71.2344 17.8761 71.8227 18.3726L72.4201 18.8768L75.1963 21.2197L75.7937 21.7239C76.382 22.2204 76.2123 23.1675 75.4881 23.4288L70.6003 25.1921Z" fill="#E1B23A"/>
<path d="M73.7905 15.5125L72.4201 18.8768L75.1963 21.2197L78.2825 19.3034L77.4136 15.7761L73.7905 15.5125Z" fill="#E1B23A"/>
<circle cx="128.951" cy="21.5556" r="13.4341" transform="rotate(3.11073 128.951 21.5556)" fill="url(#paint9_radial_2_5934)"/>
<path d="M120.71 19.262C120.228 18.6618 120.577 17.7649 121.338 17.6476L126.473 16.8557C127.234 16.7383 127.836 17.4886 127.558 18.2062L127.275 18.9348L125.959 22.3209L125.676 23.0495C125.397 23.7671 124.446 23.9137 123.964 23.3135L120.71 19.262Z" fill="#E1B23A"/>
<path d="M128.562 12.998C128.984 12.3541 129.944 12.4083 130.291 13.0957L132.631 17.7351C132.978 18.4224 132.451 19.2272 131.682 19.1838L130.901 19.1397L127.275 18.9348L126.494 18.8907C125.725 18.8473 125.292 17.9881 125.714 17.3442L128.562 12.998Z" fill="#E1B23A"/>
<path d="M136.946 18.5294C137.688 18.7317 137.934 19.6622 137.387 20.2043L133.698 23.8635C133.151 24.4056 132.223 24.1527 132.027 23.4084L131.827 22.6525L130.901 19.1397L130.702 18.3838C130.506 17.6394 131.189 16.9618 131.932 17.1641L136.946 18.5294Z" fill="#E1B23A"/>
<path d="M134.276 28.2121C134.313 28.981 133.504 29.5018 132.819 29.1495L128.199 26.7716C127.514 26.4194 127.468 25.4582 128.115 25.0416L128.773 24.6185L131.827 22.6525L132.485 22.2294C133.132 21.8128 133.988 22.2531 134.025 23.022L134.276 28.2121Z" fill="#E1B23A"/>
<path d="M124.242 28.6649C123.522 28.9378 122.777 28.3292 122.9 27.5694L123.734 22.4406C123.857 21.6807 124.757 21.3396 125.353 21.8265L125.959 22.3209L128.773 24.6185L129.378 25.1129C129.974 25.5998 129.82 26.5496 129.1 26.8226L124.242 28.6649Z" fill="#E1B23A"/>
<path d="M127.275 18.9348L125.959 22.3209L128.773 24.6185L131.827 22.6525L130.901 19.1397L127.275 18.9348Z" fill="#E1B23A"/>
<circle cx="180.286" cy="23.7269" r="13.4341" transform="rotate(1.63463 180.286 23.7269)" fill="url(#paint10_radial_2_5934)"/>
<path d="M171.989 21.6464C171.492 21.0588 171.817 20.1532 172.574 20.0163L177.688 19.0924C178.445 18.9555 179.067 19.69 178.807 20.4145L178.542 21.1502L177.314 24.569L177.05 25.3047C176.79 26.0292 175.843 26.2003 175.346 25.6127L171.989 21.6464Z" fill="#E1B23A"/>
<path d="M179.676 15.1821C180.081 14.5276 181.043 14.5571 181.408 15.2353L183.866 19.8128C184.231 20.491 183.724 21.3092 182.955 21.2856L182.173 21.2616L178.542 21.1502L177.761 21.1262C176.992 21.1026 176.536 20.2549 176.941 19.6003L179.676 15.1821Z" fill="#E1B23A"/>
<path d="M188.2 20.4958C188.947 20.6789 189.217 21.6027 188.684 22.1587L185.09 25.9117C184.558 26.4677 183.623 26.2389 183.408 25.4998L183.189 24.7493L182.173 21.2616L181.955 20.5111C181.739 19.772 182.405 19.077 183.153 19.2601L188.2 20.4958Z" fill="#E1B23A"/>
<path d="M185.78 30.2441C185.837 31.0117 185.041 31.5532 184.348 31.2187L179.668 28.9606C178.975 28.6261 178.904 27.6665 179.54 27.2333L180.186 26.7934L183.189 24.7493L183.836 24.3094C184.472 23.8763 185.339 24.2944 185.396 25.0621L185.78 30.2441Z" fill="#E1B23A"/>
<path d="M175.761 30.9551C175.049 31.2465 174.288 30.6573 174.392 29.8946L175.093 24.746C175.197 23.9832 176.088 23.619 176.696 24.0903L177.314 24.569L180.186 26.7934L180.804 27.2721C181.413 27.7434 181.283 28.6969 180.571 28.9883L175.761 30.9551Z" fill="#E1B23A"/>
<path d="M178.542 21.1502L177.314 24.569L180.186 26.7934L183.189 24.7493L182.173 21.2616L178.542 21.1502Z" fill="#E1B23A"/>
<circle cx="231.226" cy="24.3626" r="13.4341" transform="rotate(-0.289592 231.226 24.3626)" fill="url(#paint11_radial_2_5934)"/>
<path d="M222.864 22.5618C222.347 21.9913 222.641 21.0753 223.394 20.913L228.473 19.8179C229.226 19.6557 229.872 20.3689 229.636 21.1017L229.397 21.8459L228.284 25.304L228.045 26.0482C227.809 26.781 226.868 26.9838 226.352 26.4132L222.864 22.5618Z" fill="#E1B23A"/>
<path d="M230.33 15.8431C230.713 15.1753 231.675 15.1725 232.062 15.8381L234.673 20.3305C235.06 20.9961 234.581 21.8308 233.811 21.833L233.029 21.8353L229.397 21.8459L228.615 21.8481C227.845 21.8504 227.362 21.0184 227.745 20.3507L230.33 15.8431Z" fill="#E1B23A"/>
<path d="M239.027 20.8676C239.78 21.0254 240.08 21.9397 239.567 22.5133L236.101 26.3849C235.588 26.9584 234.646 26.7611 234.406 26.0297L234.162 25.2869L233.029 21.8353L232.786 21.0925C232.546 20.3611 233.187 19.6442 233.941 19.802L239.027 20.8676Z" fill="#E1B23A"/>
<path d="M236.936 30.6916C237.018 31.4569 236.242 32.0248 235.537 31.7137L230.784 29.6141C230.08 29.303 229.977 28.3463 230.598 27.892L231.229 27.4307L234.162 25.2869L234.793 24.8256C235.415 24.3713 236.295 24.7602 236.377 25.5255L236.936 30.6916Z" fill="#E1B23A"/>
<path d="M226.946 31.7387C226.244 32.0538 225.464 31.4905 225.542 30.7247L226.07 25.5554C226.148 24.7896 227.026 24.3957 227.65 24.8464L228.284 25.304L231.229 27.4307L231.863 27.8884C232.487 28.339 232.389 29.2963 231.687 29.6114L226.946 31.7387Z" fill="#E1B23A"/>
<path d="M229.397 21.8459L228.284 25.304L231.229 27.4307L234.162 25.2869L233.029 21.8353L229.397 21.8459Z" fill="#E1B23A"/>
<circle cx="282.313" cy="23.2013" r="13.4341" transform="rotate(-2.37179 282.313 23.2013)" fill="url(#paint12_radial_2_5934)"/>
<path d="M273.891 21.7056C273.354 21.1541 273.615 20.228 274.362 20.0385L279.398 18.7596C280.144 18.5701 280.815 19.2594 280.606 20.0003L280.394 20.7527L279.408 24.249L279.196 25.0013C278.987 25.7422 278.054 25.9791 277.517 25.4276L273.891 21.7056Z" fill="#E1B23A"/>
<path d="M281.108 14.72C281.467 14.0387 282.428 14.001 282.839 14.652L285.612 19.0466C286.023 19.6977 285.574 20.5492 284.805 20.5794L284.024 20.6101L280.394 20.7527L279.613 20.7833C278.844 20.8135 278.33 19.9997 278.689 19.3185L281.108 14.72Z" fill="#E1B23A"/>
<path d="M289.982 19.4251C290.741 19.5555 291.074 20.4583 290.582 21.0502L287.259 25.0451C286.767 25.6369 285.818 25.474 285.552 24.7517L285.281 24.0183L284.024 20.6101L283.754 19.8767C283.487 19.1545 284.102 18.4147 284.861 18.5451L289.982 19.4251Z" fill="#E1B23A"/>
<path d="M288.25 29.3186C288.36 30.0805 287.604 30.6762 286.889 30.3909L282.063 28.4653C281.348 28.1801 281.21 27.2278 281.815 26.7512L282.429 26.2673L285.281 24.0183L285.895 23.5344C286.5 23.0578 287.394 23.4144 287.504 24.1762L288.25 29.3186Z" fill="#E1B23A"/>
<path d="M278.305 30.728C277.614 31.0685 276.814 30.5338 276.865 29.7657L277.205 24.5807C277.255 23.8125 278.118 23.3869 278.758 23.8146L279.408 24.249L282.429 26.2673L283.078 26.7016C283.719 27.1293 283.656 28.0894 282.965 28.4299L278.305 30.728Z" fill="#E1B23A"/>
<path d="M280.394 20.7527L279.408 24.249L282.429 26.2673L285.281 24.0183L284.024 20.6101L280.394 20.7527Z" fill="#E1B23A"/>
<circle cx="335.417" cy="20.089" r="13.4341" transform="rotate(-4.32608 335.417 20.089)" fill="url(#paint13_radial_2_5934)"/>
<path d="M326.949 18.8813C326.394 18.3486 326.623 17.4141 327.362 17.1993L332.352 15.7493C333.091 15.5345 333.786 16.2005 333.602 16.9481L333.416 17.7072L332.549 21.2351L332.363 21.9943C332.179 22.7419 331.255 23.0104 330.7 22.4776L326.949 18.8813Z" fill="#E1B23A"/>
<path d="M333.924 11.6537C334.259 10.9606 335.218 10.8901 335.651 11.5268L338.572 15.8243C339.005 16.4609 338.586 17.3273 337.818 17.3837L337.039 17.441L333.416 17.7072L332.636 17.7645C331.868 17.821 331.327 17.0251 331.662 16.332L333.924 11.6537Z" fill="#E1B23A"/>
<path d="M342.953 16.0535C343.716 16.158 344.079 17.0489 343.607 17.6571L340.423 21.7631C339.951 22.3714 338.998 22.2408 338.707 21.5281L338.411 20.8043L337.039 17.441L336.743 16.7172C336.452 16.0045 337.042 15.2442 337.805 15.3486L342.953 16.0535Z" fill="#E1B23A"/>
<path d="M341.559 26.0004C341.695 26.758 340.96 27.3791 340.236 27.1184L335.347 25.3585C334.622 25.0978 334.452 24.1508 335.04 23.6539L335.637 23.1492L338.411 20.8043L339.009 20.2997C339.596 19.8028 340.502 20.1287 340.638 20.8864L341.559 26.0004Z" fill="#E1B23A"/>
<path d="M331.668 27.748C330.989 28.1118 330.172 27.6048 330.196 26.8354L330.359 21.6418C330.383 20.8724 331.231 20.4176 331.885 20.8232L332.549 21.2351L335.637 23.1492L336.301 23.5611C336.956 23.9668 336.925 24.9285 336.247 25.2923L331.668 27.748Z" fill="#E1B23A"/>
<path d="M333.416 17.7072L332.549 21.2351L335.637 23.1492L338.411 20.8043L337.039 17.441L333.416 17.7072Z" fill="#E1B23A"/>
<circle cx="386.781" cy="15.4675" r="13.4341" transform="rotate(-5.90695 386.781 15.4675)" fill="url(#paint14_radial_2_5934)"/>
<path d="M378.283 14.4939C377.713 13.9767 377.916 13.0362 378.649 12.8011L383.597 11.214C384.33 10.9789 385.043 11.6255 384.88 12.3778L384.715 13.1419L383.946 16.6923L383.78 17.4563C383.618 18.2087 382.701 18.5026 382.131 17.9854L378.283 14.4939Z" fill="#E1B23A"/>
<path d="M385.055 7.07664C385.371 6.37458 386.328 6.2776 386.779 6.90209L389.817 11.1174C390.267 11.7418 389.872 12.6194 389.107 12.697L388.329 12.7758L384.715 13.1419L383.937 13.2206C383.171 13.2982 382.608 12.5176 382.924 11.8156L385.055 7.07664Z" fill="#E1B23A"/>
<path d="M394.202 11.2257C394.968 11.309 395.356 12.1895 394.901 12.8106L391.831 17.0028C391.376 17.6239 390.42 17.5197 390.109 16.8153L389.794 16.1L388.329 12.7758L388.014 12.0604C387.703 11.356 388.272 10.5797 389.037 10.663L394.202 11.2257Z" fill="#E1B23A"/>
<path d="M393.083 21.2072C393.24 21.9608 392.523 22.6019 391.792 22.3613L386.856 20.737C386.125 20.4963 385.928 19.5543 386.502 19.0414L387.085 18.5205L389.794 16.1L390.377 15.5791C390.951 15.0662 391.865 15.367 392.022 16.1205L393.083 21.2072Z" fill="#E1B23A"/>
<path d="M383.244 23.227C382.576 23.6094 381.745 23.1252 381.748 22.3554L381.767 17.1593C381.77 16.3895 382.605 15.9115 383.27 16.2989L383.946 16.6923L387.085 18.5205L387.761 18.9139C388.426 19.3013 388.422 20.2636 387.754 20.646L383.244 23.227Z" fill="#E1B23A"/>
<path d="M384.715 13.1419L383.946 16.6923L387.085 18.5205L389.794 16.1L388.329 12.7758L384.715 13.1419Z" fill="#E1B23A"/>
<defs>
<radialGradient id="paint0_radial_2_5934" cx="0" cy="0" r="1" gradientUnits="userSpaceOnUse" gradientTransform="translate(49.6807 29.7465) rotate(90) scale(13.4341)">
<stop stop-color="#E55656" stop-opacity="0.8"/>
<stop offset="1" stop-color="#E55656" stop-opacity="0"/>
</radialGradient>
<radialGradient id="paint1_radial_2_5934" cx="0" cy="0" r="1" gradientUnits="userSpaceOnUse" gradientTransform="translate(103.223 33.4949) rotate(90) scale(13.4341)">
<stop stop-color="#5AE556" stop-opacity="0.8"/>
<stop offset="1" stop-color="#5AE556" stop-opacity="0"/>
</radialGradient>
<radialGradient id="paint2_radial_2_5934" cx="0" cy="0" r="1" gradientUnits="userSpaceOnUse" gradientTransform="translate(153.562 36.2081) rotate(90) scale(13.4341)">
<stop stop-color="#E55656" stop-opacity="0.8"/>
<stop offset="1" stop-color="#E55656" stop-opacity="0"/>
</radialGradient>
<radialGradient id="paint3_radial_2_5934" cx="0" cy="0" r="1" gradientUnits="userSpaceOnUse" gradientTransform="translate(207.293 37.7113) rotate(90) scale(13.4341)">
<stop stop-color="#5AE556" stop-opacity="0.8"/>
<stop offset="1" stop-color="#5AE556" stop-opacity="0"/>
</radialGradient>
<radialGradient id="paint4_radial_2_5934" cx="0" cy="0" r="1" gradientUnits="userSpaceOnUse" gradientTransform="translate(259.239 37.3932) rotate(90) scale(13.4341)">
<stop stop-color="#E55656" stop-opacity="0.8"/>
<stop offset="1" stop-color="#E55656" stop-opacity="0"/>
</radialGradient>
<radialGradient id="paint5_radial_2_5934" cx="0" cy="0" r="1" gradientUnits="userSpaceOnUse" gradientTransform="translate(311.589 35.1722) rotate(90) scale(13.4341)">
<stop stop-color="#5AE556" stop-opacity="0.8"/>
<stop offset="1" stop-color="#5AE556" stop-opacity="0"/>
</radialGradient>
<radialGradient id="paint6_radial_2_5934" cx="0" cy="0" r="1" gradientUnits="userSpaceOnUse" gradientTransform="translate(363.307 31.2462) rotate(90) scale(13.4341)">
<stop stop-color="#E55656" stop-opacity="0.8"/>
<stop offset="1" stop-color="#E55656" stop-opacity="0"/>
</radialGradient>
<radialGradient id="paint7_radial_2_5934" cx="0" cy="0" r="1" gradientUnits="userSpaceOnUse" gradientTransform="translate(25.7812 14.4383) rotate(90) scale(13.4341)">
<stop stop-color="#DFBA5A" stop-opacity="0.5"/>
<stop offset="1" stop-color="#DFBA5A" stop-opacity="0"/>
</radialGradient>
<radialGradient id="paint8_radial_2_5934" cx="0" cy="0" r="1" gradientUnits="userSpaceOnUse" gradientTransform="translate(75.4243 18.1601) rotate(90) scale(13.4341)">
<stop stop-color="#DFBA5A" stop-opacity="0.5"/>
<stop offset="1" stop-color="#DFBA5A" stop-opacity="0"/>
</radialGradient>
<radialGradient id="paint9_radial_2_5934" cx="0" cy="0" r="1" gradientUnits="userSpaceOnUse" gradientTransform="translate(128.951 21.5556) rotate(90) scale(13.4341)">
<stop stop-color="#DFBA5A" stop-opacity="0.5"/>
<stop offset="1" stop-color="#DFBA5A" stop-opacity="0"/>
</radialGradient>
<radialGradient id="paint10_radial_2_5934" cx="0" cy="0" r="1" gradientUnits="userSpaceOnUse" gradientTransform="translate(180.286 23.7269) rotate(90) scale(13.4341)">
<stop stop-color="#DFBA5A" stop-opacity="0.5"/>
<stop offset="1" stop-color="#DFBA5A" stop-opacity="0"/>
</radialGradient>
<radialGradient id="paint11_radial_2_5934" cx="0" cy="0" r="1" gradientUnits="userSpaceOnUse" gradientTransform="translate(231.226 24.3626) rotate(90) scale(13.4341)">
<stop stop-color="#DFBA5A" stop-opacity="0.5"/>
<stop offset="1" stop-color="#DFBA5A" stop-opacity="0"/>
</radialGradient>
<radialGradient id="paint12_radial_2_5934" cx="0" cy="0" r="1" gradientUnits="userSpaceOnUse" gradientTransform="translate(282.313 23.2013) rotate(90) scale(13.4341)">
<stop stop-color="#DFBA5A" stop-opacity="0.5"/>
<stop offset="1" stop-color="#DFBA5A" stop-opacity="0"/>
</radialGradient>
<radialGradient id="paint13_radial_2_5934" cx="0" cy="0" r="1" gradientUnits="userSpaceOnUse" gradientTransform="translate(335.417 20.089) rotate(90) scale(13.4341)">
<stop stop-color="#DFBA5A" stop-opacity="0.5"/>
<stop offset="1" stop-color="#DFBA5A" stop-opacity="0"/>
</radialGradient>
<radialGradient id="paint14_radial_2_5934" cx="0" cy="0" r="1" gradientUnits="userSpaceOnUse" gradientTransform="translate(386.781 15.4675) rotate(90) scale(13.4341)">
<stop stop-color="#DFBA5A" stop-opacity="0.5"/>
<stop offset="1" stop-color="#DFBA5A" stop-opacity="0"/>
</radialGradient>
</defs>
</svg>
